<svg width="200" height="40" viewBox="0 0 200 40" fill="none" xmlns="http://www.w3.org/2000/svg">
  <g>
    <!-- Logo Icon -->
    <path d="M20 4C12.268 4 6 10.268 6 18s6.268 14 14 14 14-6.268 14-14S27.732 4 20 4zm0 25.2c-6.188 0-11.2-5.012-11.2-11.2S13.812 6.8 20 6.8 31.2 11.812 31.2 18 26.188 29.2 20 29.2z" fill="#059669"/>
    <path d="M20 9.6c-4.636 0-8.4 3.764-8.4 8.4s3.764 8.4 8.4 8.4 8.4-3.764 8.4-8.4-3.764-8.4-8.4-8.4zm0 14c-3.092 0-5.6-2.508-5.6-5.6s2.508-5.6 5.6-5.6 5.6 2.508 5.6 5.6-2.508 5.6-5.6 5.6z" fill="#059669"/>
    <circle cx="20" cy="18" r="2.8" fill="#059669"/>
    
    <!-- Text -->
    <text x="45" y="25" font-family="Plus Jakarta Sans, sans-serif" font-weight="700" font-size="18" fill="#059669">
      Islamic Roadmap
    </text>
  </g>
</svg>